<svg xmlns="http://www.w3.org/2000/svg" viewBox="0 0 32 32">
  <defs>
    <linearGradient id="g" x1="0" y1="0" x2="1" y2="1">
      <stop offset="0%" stop-color="#00D4AA"/>
      <stop offset="100%" stop-color="#009E7E"/>
    </linearGradient>
  </defs>
  <rect width="32" height="32" rx="7" fill="#06090F"/>
  <path fill="url(#g)" d="M16 4c-3 0-5.5 2.2-5.5 5.2 0 2.6 1.8 4.1 3.4 5.4 1.6 1.3 2.6 2.2 2.6 4.1v8.8c0 1.4-1 2.5-2.4 2.5-1.5 0-2.6-1.1-2.6-2.6 0-.9.4-1.6 1-2.1l-1.7-1.7c-1.1.9-1.8 2.3-1.8 3.8 0 3 2.4 5.4 5.4 5.4 3 0 5.4-2.4 5.4-5.4v-8.8c0-3.1-1.7-4.5-3.3-5.8-1.5-1.2-2.7-2-2.7-3.6 0-1.5 1.2-2.7 2.7-2.7s2.7 1.2 2.7 2.7c0 .8-.4 1.5-.9 2l1.7 1.7c1-1 1.6-2.3 1.6-3.7C21.5 6.2 19 4 16 4z"/>
</svg>
