<svg xmlns="http://www.w3.org/2000/svg" viewBox="0 0 1200 630" width="1200" height="630">
  <defs>
    <linearGradient id="bg" x1="0" y1="0" x2="1" y2="1">
      <stop offset="0%" stop-color="#06090F"/>
      <stop offset="100%" stop-color="#0C1320"/>
    </linearGradient>
    <linearGradient id="hook" x1="0" y1="0" x2="1" y2="1">
      <stop offset="0%" stop-color="#00D4AA"/>
      <stop offset="100%" stop-color="#009E7E"/>
    </linearGradient>
    <radialGradient id="glow" cx="0.8" cy="0.2" r="0.6">
      <stop offset="0%" stop-color="rgba(0,212,170,0.35)"/>
      <stop offset="100%" stop-color="rgba(0,212,170,0)"/>
    </radialGradient>
  </defs>
  <rect width="1200" height="630" fill="url(#bg)"/>
  <rect width="1200" height="630" fill="url(#glow)"/>
  <g transform="translate(110,165)">
    <path fill="url(#hook)" d="M150 0c-55 0-100 40-100 95 0 47 32 75 62 99 30 23 47 40 47 75v160c0 26-18 46-44 46-27 0-47-20-47-47 0-17 7-30 18-39l-31-31c-20 17-32 42-32 70 0 55 44 99 99 99s99-44 99-99V268c0-56-31-82-60-105-28-22-50-37-50-65 0-27 22-49 49-49s49 22 49 49c0 14-7 27-17 36l31 31c19-19 30-42 30-67C250 40 205 0 150 0z"/>
  </g>
  <g transform="translate(440,210)" font-family="Rajdhani, system-ui, sans-serif" fill="#DFECF8">
    <text font-size="86" font-weight="700" letter-spacing="6" y="0">HOOKED</text>
    <text font-size="34" font-weight="600" y="60" fill="#00D4AA">Dein digitales Fangtagebuch</text>
    <text font-size="22" font-weight="500" y="120" fill="#90B8D8">Catches · Spots · Heatmap · Trips · Wetter</text>
    <text font-size="18" font-weight="600" y="200" fill="#FFB800" letter-spacing="2">IN ENTWICKLUNG · LAUNCH IN VORBEREITUNG</text>
  </g>
</svg>
