<svg xmlns="http://www.w3.org/2000/svg" viewBox="0 0 64 64">
  <defs>
    <linearGradient id="g" x1="0" y1="0" x2="1" y2="1">
      <stop offset="0%" stop-color="#00D4AA"/>
      <stop offset="100%" stop-color="#009E7E"/>
    </linearGradient>
  </defs>
  <rect width="64" height="64" rx="14" fill="#2D3942"/>
  <path d="M14 32c0-9 8-16 18-16 8 0 14 4 18 9l8-6v26l-8-6c-4 5-10 9-18 9-10 0-18-7-18-16z" fill="none" stroke="#DFECF8" stroke-width="2.4" stroke-linejoin="round"/>
  <path d="M22 32c2-3 6-5 11-5s9 2 11 5c-2 3-6 5-11 5s-9-2-11-5z" fill="url(#g)"/>
  <circle cx="42" cy="29" r="1.6" fill="#DFECF8"/>
</svg>
